<?xml version="1.0" encoding="UTF-8" standalone="no"?>
<!DOCTYPE svg PUBLIC "-//W3C//DTD SVG 1.1//EN" "http://www.w3.org/Graphics/SVG/1.1/DTD/svg11.dtd">
<svg width="100%" height="100%" viewBox="0 0 2062 500" version="1.1" xmlns="http://www.w3.org/2000/svg" xmlns:xlink="http://www.w3.org/1999/xlink" xml:space="preserve" xmlns:serif="http://www.serif.com/" style="fill-rule:evenodd;clip-rule:evenodd;stroke-linecap:round;stroke-linejoin:round;stroke-miterlimit:10;">
    <g transform="matrix(1,0,0,1,-928.176,-862.759)">
        <g transform="matrix(4.16667,0,0,4.16667,-284.734,21.3017)">
            <text x="454.696px" y="299.147px" style="font-family:'TrebuchetMS-Bold', 'Trebuchet MS', sans-serif;font-weight:700;font-size:102.975px;fill:white;">SYNIT<tspan x="721.008px " y="299.147px ">A</tspan></text>
        </g>
        <g id="Logo" transform="matrix(1.22349,0,0,1.22349,902.62,800.575)">
            <g transform="matrix(1,0,0,1,195.715,318.05)">
                <path d="M0,-125.857L-36.332,-62.93L0,0L72.665,0L108.996,-62.93L72.665,-125.857L0,-125.857Z" style="fill:white;fill-rule:nonzero;stroke:white;stroke-width:2.41px;"/>
            </g>
            <g transform="matrix(1,0,0,1,195.715,177.89)">
                <path d="M0,-125.858L-36.332,-62.93L0,0L72.665,0L108.996,-62.93L72.665,-125.858L0,-125.858Z" style="fill:white;fill-rule:nonzero;stroke:white;stroke-width:2.41px;"/>
            </g>
            <g transform="matrix(1,0,0,1,268.38,332.353)">
                <path d="M0,125.855L36.331,62.927L0,0L-72.665,0L-108.997,62.927L-72.665,125.855L0,125.855Z" style="fill:white;fill-rule:nonzero;stroke:white;stroke-width:2.41px;"/>
            </g>
            <g transform="matrix(1,0,0,1,38,185.039)">
                <path d="M0,0.003L36.333,62.931L108.998,62.931L145.329,0.003L108.998,-62.928L36.333,-62.928L0,0.003Z" style="fill:white;fill-rule:nonzero;stroke:white;stroke-width:3.41px;stroke-linecap:butt;stroke-linejoin:miter;"/>
            </g>
            <g transform="matrix(1,0,0,1,426.093,325.201)">
                <path d="M0,-0.001L-36.333,-62.93L-108.997,-62.93L-145.327,-0.001L-108.997,62.929L-36.333,62.929L0,-0.001Z" style="fill:white;fill-rule:nonzero;stroke:white;stroke-width:2.41px;"/>
            </g>
            <g transform="matrix(1,0,0,1,74.333,262.272)">
                <path d="M0,125.858L72.665,125.858L108.996,62.928L72.665,0L0,0L-36.333,62.928L0,125.858Z" style="fill:white;fill-rule:nonzero;stroke:white;stroke-width:2.41px;"/>
            </g>
            <g transform="matrix(1,0,0,1,389.76,247.97)">
                <path d="M0,-125.859L-72.664,-125.859L-108.994,-62.928L-72.664,0L0,0L36.333,-62.928L0,-125.859Z" style="fill:white;fill-rule:nonzero;stroke:white;stroke-width:2.41px;"/>
            </g>
        </g>
    </g>
</svg>
